<?xml version="1.0" standalone="no"?>
<!DOCTYPE svg PUBLIC "-//W3C//DTD SVG 20010904//EN"
 "http://www.w3.org/TR/2001/REC-SVG-20010904/DTD/svg10.dtd">
<svg version="1.0" xmlns="http://www.w3.org/2000/svg"
 width="300.000000pt" height="212.000000pt" viewBox="0 0 300.000000 212.000000"
 preserveAspectRatio="xMidYMid meet">
<metadata>
Created by potrace 1.10, written by Peter Selinger 2001-2011
</metadata>
<g transform="translate(0.000000,212.000000) scale(0.100000,-0.100000)"
fill="#ffffff" stroke="none">
<path d="M2280 2112 c0 -5 18 -89 40 -187 l41 -179 -30 -30 c-16 -17 -46 -66
-66 -108 -20 -43 -40 -80 -45 -83 -6 -4 -10 -20 -10 -36 0 -25 5 -30 31 -36
25 -5 42 -23 91 -97 34 -50 62 -92 63 -94 2 -2 26 11 54 27 36 22 59 29 79 25
41 -8 151 46 206 101 21 21 27 34 23 54 -5 21 0 30 18 42 l24 14 -67 102 c-37
57 -70 103 -75 103 -4 0 -68 -41 -143 -90 -74 -50 -139 -88 -144 -85 -6 4 -13
-1 -16 -9 -3 -9 -29 -32 -56 -52 -76 -54 -80 -35 -20 88 75 150 73 148 232
181 74 16 143 30 152 33 13 4 19 -6 28 -51 6 -30 15 -53 19 -50 11 6 3 75 -9
90 -6 7 -8 14 -5 17 5 4 -49 274 -60 307 -3 8 -8 11 -11 8 -4 -3 6 -61 20
-129 15 -68 28 -131 30 -141 3 -11 -3 -19 -17 -22 -30 -7 -164 -36 -208 -44
-19 -4 -40 -10 -45 -14 -23 -14 -36 19 -71 181 -21 95 -41 172 -45 172 -5 0
-8 -4 -8 -8z m398 -518 l61 -92 -150 -101 c-83 -55 -154 -101 -158 -101 -9 0
-121 165 -121 177 0 7 303 213 306 209 1 0 28 -42 62 -92z m52 1 c6 -11 17
-30 26 -42 9 -13 12 -23 7 -23 -8 0 -57 68 -97 135 -15 25 -12 23 19 -10 20
-22 40 -49 45 -60z m10 -135 c0 -11 -8 -24 -17 -27 -9 -4 -25 -15 -35 -25 -10
-10 -24 -18 -31 -18 -7 0 -18 -9 -25 -20 -7 -11 -20 -20 -30 -20 -10 0 -23 -5
-29 -11 -6 -6 -21 -9 -34 -7 -20 2 -5 16 81 74 58 39 108 72 113 73 4 0 7 -8
7 -19z"/>
<path d="M2169 1378 c-28 -11 -23 -25 16 -50 25 -16 35 -30 35 -49 0 -31 21
-61 36 -51 6 4 23 31 38 60 36 71 26 89 -50 94 -30 1 -64 0 -75 -4z m129 -23
c1 -1 -12 -31 -28 -66 l-31 -64 5 52 5 52 -37 12 c-61 19 -56 25 16 21 37 -2
68 -5 70 -7z"/>
<path d="M1965 1350 c-10 -16 4 -49 26 -61 17 -9 19 -17 14 -53 -4 -27 -3 -46
3 -50 14 -8 79 49 97 85 13 24 13 30 -1 43 -8 9 -38 22 -66 31 -61 18 -65 18
-73 5z m82 -34 l53 -18 -42 -53 c-23 -30 -44 -53 -45 -51 -2 2 4 22 13 45 16
40 16 43 -2 56 -11 7 -28 21 -39 30 -22 18 -20 18 62 -9z"/>
<path d="M1730 1285 c0 -8 10 -26 23 -41 15 -17 22 -38 22 -66 0 -23 5 -43 10
-45 12 -4 69 48 92 84 20 31 1 57 -53 71 -61 16 -94 15 -94 -3z m77 -18 l62
-23 -42 -51 c-23 -29 -43 -51 -45 -49 -1 2 5 23 14 46 15 37 15 43 2 51 -20
11 -64 48 -58 49 3 0 33 -11 67 -23z"/>
<path d="M945 1233 c-71 -30 -138 -59 -148 -64 -10 -6 -23 -7 -29 -3 -6 4 -9
3 -5 -2 3 -5 -33 -25 -80 -44 -47 -19 -81 -36 -75 -38 5 -1 108 38 228 89 121
50 229 95 241 100 20 7 25 0 68 -103 25 -60 45 -111 43 -112 -18 -11 -491
-207 -493 -204 -1 2 -21 51 -45 111 -24 59 -47 107 -51 107 -8 0 12 -58 32
-93 5 -10 7 -23 3 -29 -4 -7 -3 -8 4 -4 7 4 12 1 12 -7 0 -7 9 -31 19 -53 18
-36 23 -39 59 -39 22 0 38 3 36 7 -5 8 45 31 269 123 98 41 167 75 167 83 0
13 -59 164 -82 210 -6 12 -18 22 -27 21 -9 0 -74 -26 -146 -56z"/>
<path d="M1250 1281 c0 -6 25 -25 55 -43 30 -18 54 -35 54 -38 0 -7 -109 -82
-109 -75 0 4 12 22 26 40 l26 34 -29 36 c-27 34 -43 44 -43 27 0 -5 7 -17 15
-28 18 -23 19 -48 3 -73 -13 -22 -5 -51 16 -51 16 0 116 76 116 88 -1 15 -27
40 -71 65 -50 29 -59 32 -59 18z"/>
<path d="M1480 1275 c-9 -11 -8 -21 6 -44 17 -29 17 -32 0 -67 -17 -38 -11
-53 20 -54 18 0 114 73 114 87 0 14 -49 53 -96 77 -28 13 -34 14 -44 1z m65
-41 c30 -20 55 -38 55 -39 0 -1 -25 -19 -55 -39 -30 -20 -55 -34 -55 -30 0 3
11 20 25 39 l26 33 -32 36 c-17 20 -28 36 -25 36 4 0 31 -16 61 -36z"/>
<path d="M1076 1227 c3 -10 9 -15 12 -12 3 3 0 11 -7 18 -10 9 -11 8 -5 -6z"/>
<path d="M1030 1220 c-9 -6 -10 -10 -3 -10 6 0 15 5 18 10 8 12 4 12 -15 0z"/>
<path d="M900 1170 l-25 -8 27 -1 c15 -1 42 -14 60 -30 41 -36 44 -88 8 -126
-26 -28 -47 -16 -27 17 17 26 -2 52 -42 58 -37 6 -43 21 -12 35 28 13 27 23
-4 23 -13 0 -24 -3 -23 -7 1 -3 -2 -14 -6 -23 -14 -31 1 -48 39 -48 28 0 35
-4 35 -20 0 -13 -9 -22 -25 -26 -31 -8 -33 -26 -3 -22 11 2 23 -3 25 -9 12
-34 -88 1 -107 36 -16 31 -12 76 11 105 l21 27 -36 -18 c-20 -9 -32 -19 -28
-22 5 -3 8 -22 7 -41 -1 -41 32 -100 58 -100 9 0 17 -4 17 -10 0 -5 -5 -10
-12 -10 -6 0 -9 -2 -7 -5 5 -5 81 21 129 44 50 24 34 136 -24 175 -14 9 -27
16 -28 15 -2 -1 -14 -5 -28 -9z"/>
<path d="M745 1100 c-3 -6 1 -7 9 -4 18 7 21 14 7 14 -6 0 -13 -4 -16 -10z"/>
<path d="M650 1060 c-9 -6 -10 -10 -3 -10 6 0 15 5 18 10 8 12 4 12 -15 0z"/>
<path d="M1120 1060 c-8 -5 -10 -10 -5 -10 6 0 17 5 25 10 8 5 11 10 5 10 -5
0 -17 -5 -25 -10z"/>
<path d="M650 1021 c0 -6 4 -13 10 -16 6 -3 7 1 4 9 -7 18 -14 21 -14 7z"/>
<path d="M680 951 c0 -6 4 -13 10 -16 6 -3 7 1 4 9 -7 18 -14 21 -14 7z"/>
<path d="M491 836 c-62 -61 -51 -97 22 -73 23 8 32 5 54 -17 14 -15 31 -25 37
-23 17 6 11 70 -10 113 -26 53 -49 53 -103 0z m90 -24 c9 -26 19 -56 23 -67 5
-11 -8 -2 -27 20 l-35 40 -36 -18 c-20 -9 -40 -17 -44 -17 -8 0 90 89 98 89 3
1 12 -21 21 -47z"/>
<path d="M535 639 c-87 -17 -100 -17 -108 -4 -10 19 -41 19 -57 0 -20 -25 -72
-176 -79 -230 l-6 -50 -95 -58 c-169 -102 -195 -120 -184 -124 6 -2 53 23 105
55 131 83 169 103 179 97 5 -3 26 -33 46 -68 21 -34 52 -82 69 -107 17 -25 35
-51 39 -57 5 -9 -5 -19 -28 -30 -20 -9 -36 -20 -36 -25 0 -4 -6 -8 -14 -8 -8
0 -17 -7 -20 -16 -5 -12 7 -9 41 12 89 51 183 116 183 125 0 11 -30 -3 -73
-34 -16 -10 -29 -18 -31 -16 -1 2 -37 59 -79 127 -90 143 -92 158 -48 272 16
41 32 87 35 103 4 17 13 27 25 27 15 0 19 -11 25 -55 3 -31 3 -67 0 -82 -5
-17 -3 -24 4 -19 11 7 19 -23 47 -191 10 -56 21 -106 25 -113 7 -11 43 -7 188
21 51 10 53 12 47 38 -5 22 -1 29 19 39 22 10 26 8 43 -21 14 -23 17 -42 13
-69 -4 -20 -3 -35 0 -33 4 3 13 -16 19 -41 12 -48 62 -104 91 -104 9 1 0 13
-23 33 -30 26 -40 45 -53 95 -11 45 -13 67 -6 74 8 8 0 27 -24 66 -48 74 -58
103 -42 114 21 12 22 11 72 -52 25 -34 51 -58 56 -55 12 8 172 -15 185 -27 5
-4 21 -45 36 -91 l27 -82 -36 -37 c-29 -30 -32 -38 -18 -38 18 0 47 26 81 72
11 15 19 19 22 11 3 -7 11 -13 19 -13 8 0 14 -3 14 -7 0 -11 84 -63 100 -63 8
0 -22 27 -65 59 -70 52 -81 57 -91 43 -10 -14 -13 -11 -22 23 -6 22 -15 58
-21 81 -11 42 -53 90 -69 80 -5 -3 -45 0 -88 6 -78 11 -80 12 -118 60 -25 32
-48 51 -67 55 -21 4 -29 11 -29 27 0 12 -5 27 -12 34 -7 7 -9 12 -4 12 4 0 -2
14 -14 30 -12 17 -28 30 -36 30 -8 0 -14 9 -14 21 0 35 -22 99 -34 98 -6 -1
-56 -9 -111 -20z m140 -139 c9 -58 23 -134 30 -170 8 -36 12 -67 9 -69 -5 -5
-206 -42 -210 -38 -3 4 -64 350 -61 353 1 1 45 10 97 19 52 9 97 18 99 21 11
11 20 -18 36 -116z m36 -1 c26 -53 30 -69 25 -87 -4 -11 -2 -23 4 -27 6 -4 10
-17 9 -28 -1 -12 2 -30 6 -40 8 -19 -9 -46 -21 -34 -12 12 -51 238 -41 234 6
-2 14 -10 18 -18z m-108 -306 c-7 -2 -19 -2 -25 0 -7 3 -2 5 12 5 14 0 19 -2
13 -5z"/>
</g>
</svg>
